<?xml version="1.0" encoding="UTF-8" standalone="no"?>
<!-- Created with Inkscape (http://www.inkscape.org/) -->

<svg
   width="1200"
   height="560"
   viewBox="0 0 317.49999 148.16667"
   version="1.1"
   id="svg5"
   inkscape:version="1.1.2 (b8e25be833, 2022-02-05)"
   sodipodi:docname="background-bubbles.svg"
   xmlns:inkscape="http://www.inkscape.org/namespaces/inkscape"
   xmlns:sodipodi="http://sodipodi.sourceforge.net/DTD/sodipodi-0.dtd"
   xmlns="http://www.w3.org/2000/svg"
   xmlns:svg="http://www.w3.org/2000/svg">
  <sodipodi:namedview
     id="namedview7"
     pagecolor="#ffffff"
     bordercolor="#666666"
     borderopacity="1.0"
     inkscape:pageshadow="2"
     inkscape:pageopacity="0.0"
     inkscape:pagecheckerboard="0"
     inkscape:document-units="mm"
     showgrid="false"
     units="px"
     inkscape:zoom="0.46235269"
     inkscape:cx="600.19117"
     inkscape:cy="392.55747"
     inkscape:window-width="1366"
     inkscape:window-height="690"
     inkscape:window-x="-8"
     inkscape:window-y="-8"
     inkscape:window-maximized="1"
     inkscape:current-layer="layer1"
     height="560px" />
  <defs
     id="defs2">
    <inkscape:path-effect
       effect="spiro"
       id="path-effect829"
       is_visible="true"
       lpeversion="1" />
    <inkscape:path-effect
       effect="spiro"
       id="path-effect1273"
       is_visible="true"
       lpeversion="1" />
    <inkscape:path-effect
       effect="spiro"
       id="path-effect859"
       is_visible="true"
       lpeversion="1" />
  </defs>
  <g
     inkscape:label="Layer 1"
     inkscape:groupmode="layer"
     id="layer1">
    <path
       style="fill:#0e58f8;fill-opacity:1;stroke:none;stroke-width:0.0988882px;stroke-linecap:butt;stroke-linejoin:miter;stroke-opacity:1"
       d="m 0.68843988,145.34332 c 6.19163032,0.32901 12.47798112,-2.18078 16.74054312,-6.68357 4.262561,-4.50278 6.424269,-10.91716 5.756625,-17.08148 -0.288821,-2.66666 -1.086514,-5.28617 -2.411859,-7.61812 -1.325346,-2.33194 -3.183359,-4.37079 -5.432322,-5.83252 -2.650534,-1.72274 -5.7716023,-2.61008 -8.9057769,-3.02253 -3.1341746,-0.41244 -6.30763727,-0.3722 -9.4688313,-0.3758 -5.0821269,-0.006 -10.2829718,-0.10902 -15.0951978,1.52516 -4.392997,1.49181 -8.302637,4.46033 -10.75822,8.39658 -2.455582,3.93625 -3.400585,8.82773 -2.402139,13.35841 0.807076,3.66229 2.817764,6.97824 5.315056,9.77597 2.497292,2.79772 5.476895,5.11936 8.504982,7.3317 2.379121,1.7382 4.858199,3.44812 7.6906896,4.25964 1.4162456,0.40575 2.9102412,0.57692 4.3719513,0.39309 1.46171,-0.18383 2.8901395,-0.73277 4.0344277,-1.66067 0.90222254,-0.73161 1.61747584,-1.69191 2.06006918,-2.76586 z"
       id="path1269"
       inkscape:path-effect="#path-effect1273"
       inkscape:original-d="M 0.68843988,145.34332 C 1.3752728,144.42137 15.686407,129.49996 23.185608,121.57827 c 7.4992,-7.92169 -5.229599,-8.96709 -7.844181,-13.45064 -2.614589,-4.48354 -12.2498693,-2.26554 -18.3746082,-3.39833 -6.124737,-1.13278 -10.0636098,1.01677 -15.0951978,1.52516 -5.031582,0.50837 -14.275786,16.63507 -13.160359,21.75499 1.531436,6.04154 45.136519,2.82228 13.820038,17.10767 -4.942283,2.3722 10.7312348,1.99471 16.0970686,2.99206 5.3658302,0.99735 1.37323788,-1.8439 2.06006918,-2.76586 z"
       sodipodi:nodetypes="sssssccss" />
    <path
       style="fill:#0e58f8;fill-opacity:1;stroke:none;stroke-width:0.0988882px;stroke-linecap:butt;stroke-linejoin:miter;stroke-opacity:1"
       d="m 341.1322,20.353018 c -3.51051,-5.110859 -9.33011,-8.567669 -15.49758,-9.205481 -6.16748,-0.637811 -12.57133,1.554908 -17.05344,5.839208 -1.93894,1.853372 -3.53053,4.081599 -4.57265,6.553133 -1.04212,2.471534 -1.52734,5.186983 -1.31672,7.860956 0.24822,3.151436 1.4456,6.167187 3.02758,8.904062 1.58199,2.736875 3.54692,5.229168 5.46961,7.738439 3.09103,4.034053 6.17709,8.221612 10.40433,11.04268 3.85898,2.575305 8.59469,3.867774 13.21219,3.4176 4.61749,-0.450173 9.07245,-2.680212 12.05746,-6.23178 2.41288,-2.870847 3.81794,-6.485286 4.51561,-10.169986 0.69768,-3.6847 0.72399,-7.461914 0.63408,-11.211004 -0.0706,-2.945602 -0.22459,-5.953253 -1.30632,-8.69395 -0.54087,-1.370348 -1.31514,-2.659463 -2.35129,-3.706739 -1.03615,-1.047277 -2.34159,-1.845765 -3.77449,-2.188075 -1.12978,-0.269897 -2.32705,-0.252211 -3.44837,0.05094 z"
       id="path825"
       inkscape:path-effect="#path-effect829"
       inkscape:original-d="m 341.1322,20.353018 c -1.14954,0.01687 -21.70059,-2.244072 -32.55102,-3.366273 -10.85042,-1.122206 -3.92616,9.609509 -5.88937,14.414089 -1.96321,4.804591 5.66488,11.095101 8.49719,16.642501 2.8323,5.5474 6.93631,7.3619 10.40433,11.04268 3.46802,3.68078 21.88859,1.18908 25.26965,-2.81418 3.85859,-4.89457 -25.25522,-37.515923 5.14969,-21.38099 4.89177,2.47467 -4.95465,-9.725731 -7.4321,-14.588764 -2.47746,-4.863028 -2.29883,0.03407 -3.44837,0.05094 z"
       sodipodi:nodetypes="sssssccss" />
  </g>
</svg>
