<?xml version="1.0" encoding="UTF-8" standalone="no"?>
<!-- Created with Inkscape (http://www.inkscape.org/) -->

<svg
   width="1200"
   height="560"
   viewBox="0 0 317.49999 148.16667"
   version="1.1"
   id="svg5"
   inkscape:version="1.1.2 (b8e25be833, 2022-02-05)"
   sodipodi:docname="background-bubles.svg"
   xmlns:inkscape="http://www.inkscape.org/namespaces/inkscape"
   xmlns:sodipodi="http://sodipodi.sourceforge.net/DTD/sodipodi-0.dtd"
   xmlns="http://www.w3.org/2000/svg"
   xmlns:svg="http://www.w3.org/2000/svg">
  <sodipodi:namedview
     id="namedview7"
     pagecolor="#ffffff"
     bordercolor="#666666"
     borderopacity="1.0"
     inkscape:pageshadow="2"
     inkscape:pageopacity="0.0"
     inkscape:pagecheckerboard="0"
     inkscape:document-units="mm"
     showgrid="false"
     units="px"
     inkscape:zoom="0.46235269"
     inkscape:cx="600.19116"
     inkscape:cy="392.55746"
     inkscape:window-width="1366"
     inkscape:window-height="690"
     inkscape:window-x="-8"
     inkscape:window-y="-8"
     inkscape:window-maximized="1"
     inkscape:current-layer="layer1"
     height="560px" />
  <defs
     id="defs2">
    <inkscape:path-effect
       effect="spiro"
       id="path-effect1273"
       is_visible="true"
       lpeversion="1" />
    <inkscape:path-effect
       effect="spiro"
       id="path-effect859"
       is_visible="true"
       lpeversion="1" />
  </defs>
  <g
     inkscape:label="Layer 1"
     inkscape:groupmode="layer"
     id="layer1">
    <path
       style="fill:none;fill-opacity:1;stroke:#0e58f8;stroke-width:0.84243333;stroke-linecap:butt;stroke-linejoin:miter;stroke-opacity:1;stroke-miterlimit:4;stroke-dasharray:none"
       d="m 354.43619,48.921991 c -7.17188,1.091931 -14.35614,-1.225261 -21.47785,-2.607068 -3.56086,-0.690904 -7.20057,-1.151677 -10.81368,-0.83153 -3.61311,0.320148 -7.22021,1.464875 -10.06486,3.715439 -2.78584,2.204043 -4.72413,5.398292 -5.623,8.83497 -0.89888,3.436678 -0.78756,7.100625 0.0862,10.543769 2.00534,7.902046 7.73615,14.239529 13.28828,20.209255 4.48181,4.818911 9.09844,9.721984 14.94931,12.734604 5.34167,2.75043 11.61234,3.76226 17.49547,2.54277 5.88313,-1.21949 11.31506,-4.721649 14.61788,-9.740591 2.66347,-4.047388 3.89268,-8.904621 4.24406,-13.737005 0.35137,-4.832384 -0.13059,-9.682846 -0.64516,-14.500586 -0.41166,-3.854215 -0.87255,-7.802789 -2.63298,-11.256096 -0.88021,-1.726654 -2.08699,-3.305835 -3.62831,-4.480754 -1.54132,-1.174919 -3.42855,-1.92997 -5.36595,-1.980855 -1.48998,-0.03913 -2.95592,0.329334 -4.42943,0.553678 z"
       id="path857"
       inkscape:path-effect="#path-effect859"
       inkscape:original-d="m 354.43619,48.921991 c -1.4766,0.184433 -28.23746,0.184689 -42.35639,0.276841 -14.11893,0.09215 -3.69106,12.919287 -5.53678,19.378739 -1.84572,6.459451 8.85898,13.472964 13.28828,20.209255 4.4293,6.736299 9.96634,8.489862 14.94931,12.734604 4.98297,4.24474 28.33,-1.568631 32.11335,-7.197821 4.27157,-6.843517 -37.80384,-44.692599 3.5989,-28.237591 6.64402,2.491424 -7.75137,-11.811675 -11.62724,-17.717705 -3.87588,-5.906029 -2.95283,0.369247 -4.42943,0.553678 z"
       sodipodi:nodetypes="sssssccss" />
    <path
       style="fill:#0e58f8;fill-opacity:1;stroke:none;stroke-width:0.0988882px;stroke-linecap:butt;stroke-linejoin:miter;stroke-opacity:1"
       d="m 1.785379,97.607354 c -3.5105084,-5.11086 -9.3301083,-8.567671 -15.497584,-9.205483 -6.167476,-0.637811 -12.571323,1.554909 -17.053435,5.83921 -1.938944,1.853372 -3.530532,4.0816 -4.572652,6.553129 -1.04212,2.47154 -1.527332,5.18699 -1.316716,7.86096 0.248223,3.15144 1.445593,6.16719 3.027578,8.90406 1.581985,2.73688 3.546918,5.22917 5.469604,7.73844 3.091026,4.03405 6.17709,8.22161 10.404337,11.04268 3.858981,2.5753 8.5946903,3.86777 13.2121853,3.4176 4.61749495,-0.45018 9.0724472,-2.68021 12.057459,-6.23178 2.4128824,-2.87085 3.8179427,-6.48529 4.5156157,-10.16999 0.697674,-3.6847 0.723983,-7.46191 0.634076,-11.211 -0.07064,-2.9456 -0.22459,-5.95325 -1.306322,-8.69395 -0.540867,-1.37035 -1.315143,-2.65946 -2.3512915,-3.706739 C 7.9720852,98.697215 6.6666496,97.898727 5.2337453,97.556417 4.1039636,97.286521 2.9066956,97.304207 1.785379,97.607357 Z"
       id="path1269"
       inkscape:path-effect="#path-effect1273"
       inkscape:original-d="m 1.785379,97.607354 c -1.14954199,0.01687 -21.700591,-2.244072 -32.551019,-3.366273 -10.850426,-1.122206 -3.926159,9.609509 -5.889368,14.414089 -1.963209,4.80459 5.664872,11.0951 8.497182,16.6425 2.832303,5.5474 6.936315,7.3619 10.404337,11.04268 3.468017,3.68078 21.8885843,1.18908 25.2696443,-2.81418 3.8585947,-4.89457 -25.2552173,-37.515922 5.1496917,-21.38099 4.891768,2.47467 -4.9546447,-9.72573 -7.4321017,-14.588763 -2.477459,-4.863028 -2.298825,0.03407 -3.4483663,0.05094 z"
       sodipodi:nodetypes="sssssccss" />
  </g>
</svg>
