<?xml version="1.0" encoding="UTF-8" standalone="no"?>
<!-- Created with Inkscape (http://www.inkscape.org/) -->

<svg
   width="1200"
   height="560"
   viewBox="0 0 317.49999 148.16667"
   version="1.1"
   id="svg5"
   inkscape:version="1.1.2 (b8e25be833, 2022-02-05)"
   sodipodi:docname="background-bubbles4.svg"
   xmlns:inkscape="http://www.inkscape.org/namespaces/inkscape"
   xmlns:sodipodi="http://sodipodi.sourceforge.net/DTD/sodipodi-0.dtd"
   xmlns="http://www.w3.org/2000/svg"
   xmlns:svg="http://www.w3.org/2000/svg">
  <sodipodi:namedview
     id="namedview7"
     pagecolor="#ffffff"
     bordercolor="#666666"
     borderopacity="1.0"
     inkscape:pageshadow="2"
     inkscape:pageopacity="0.0"
     inkscape:pagecheckerboard="0"
     inkscape:document-units="mm"
     showgrid="false"
     units="px"
     inkscape:zoom="0.46235269"
     inkscape:cx="600.19117"
     inkscape:cy="392.55747"
     inkscape:window-width="1366"
     inkscape:window-height="690"
     inkscape:window-x="-8"
     inkscape:window-y="-8"
     inkscape:window-maximized="1"
     inkscape:current-layer="layer1"
     height="560px" />
  <defs
     id="defs2">
    <inkscape:path-effect
       effect="spiro"
       id="path-effect938"
       is_visible="true"
       lpeversion="1" />
    <inkscape:path-effect
       effect="spiro"
       id="path-effect829"
       is_visible="true"
       lpeversion="1" />
    <inkscape:path-effect
       effect="spiro"
       id="path-effect1273"
       is_visible="true"
       lpeversion="1" />
    <inkscape:path-effect
       effect="spiro"
       id="path-effect859"
       is_visible="true"
       lpeversion="1" />
  </defs>
  <g
     inkscape:label="Layer 1"
     inkscape:groupmode="layer"
     id="layer1">
    <path
       style="fill:#0e58f8;fill-opacity:1;stroke:none;stroke-width:0.0593289px;stroke-linecap:butt;stroke-linejoin:miter;stroke-opacity:1"
       d="m 301.93586,110.8346 c -1.28777,-1.02041 -2.92487,-1.5641 -4.56681,-1.6243 -1.64194,-0.0602 -3.28521,0.34915 -4.75892,1.07562 -3.39455,1.67336 -5.74596,4.8736 -7.80121,8.05151 -1.65132,2.55333 -3.21154,5.19123 -4.25205,8.04845 -0.79836,2.19229 -1.28398,4.51439 -1.25301,6.84732 0.031,2.33293 0.59253,4.67849 1.77511,6.68971 1.18258,2.01123 3.00493,3.67085 5.18416,4.50419 2.17924,0.83335 4.70977,0.79704 6.79569,-0.24818 2.21739,-1.1111 3.77496,-3.23132 4.83005,-5.4759 1.0551,-2.24458 1.68673,-4.6616 2.58011,-6.97531 1.35976,-3.52155 3.33416,-6.82876 4.17261,-10.50942 0.41922,-1.84034 0.54213,-3.7713 0.13788,-5.61498 -0.40425,-1.84367 -1.36426,-3.59649 -2.84361,-4.76871 z"
       id="path1269"
       sodipodi:nodetypes="cssscsc"
       inkscape:original-d="m 301.93586,110.8346 c -1.46688,-6.37803 -6.2172,-0.36572 -9.32573,-0.54868 -3.10853,-0.18296 -5.20084,5.36775 -7.80121,8.05151 -2.60036,2.68377 -2.83475,5.36571 -4.25205,8.04845 -1.4173,2.68274 9.57343,16.64969 12.50195,17.79304 3.52715,1.24163 5.02243,-8.29439 7.41016,-12.45121 12.4415,-21.65944 3.68928,-11.21182 1.46688,-20.89311 z"
       inkscape:path-effect="#path-effect1273" />
  </g>
</svg>
