<?xml version="1.0" encoding="UTF-8" standalone="no"?>
<!-- Created with Inkscape (http://www.inkscape.org/) -->

<svg
   width="1200"
   height="560"
   viewBox="0 0 317.49999 148.16667"
   version="1.1"
   id="svg5"
   inkscape:version="1.1.2 (b8e25be833, 2022-02-05)"
   sodipodi:docname="background-bubbles3.svg"
   xmlns:inkscape="http://www.inkscape.org/namespaces/inkscape"
   xmlns:sodipodi="http://sodipodi.sourceforge.net/DTD/sodipodi-0.dtd"
   xmlns="http://www.w3.org/2000/svg"
   xmlns:svg="http://www.w3.org/2000/svg">
  <sodipodi:namedview
     id="namedview7"
     pagecolor="#ffffff"
     bordercolor="#666666"
     borderopacity="1.0"
     inkscape:pageshadow="2"
     inkscape:pageopacity="0.0"
     inkscape:pagecheckerboard="0"
     inkscape:document-units="mm"
     showgrid="false"
     units="px"
     inkscape:zoom="0.46235269"
     inkscape:cx="600.19117"
     inkscape:cy="392.55747"
     inkscape:window-width="1366"
     inkscape:window-height="690"
     inkscape:window-x="-8"
     inkscape:window-y="-8"
     inkscape:window-maximized="1"
     inkscape:current-layer="layer1"
     height="560px" />
  <defs
     id="defs2">
    <inkscape:path-effect
       effect="spiro"
       id="path-effect938"
       is_visible="true"
       lpeversion="1" />
    <inkscape:path-effect
       effect="spiro"
       id="path-effect829"
       is_visible="true"
       lpeversion="1" />
    <inkscape:path-effect
       effect="spiro"
       id="path-effect1273"
       is_visible="true"
       lpeversion="1" />
    <inkscape:path-effect
       effect="spiro"
       id="path-effect859"
       is_visible="true"
       lpeversion="1" />
  </defs>
  <g
     inkscape:label="Layer 1"
     inkscape:groupmode="layer"
     id="layer1">
    <path
       style="fill:#0e58f8;fill-opacity:1;stroke:none;stroke-width:0.0593289px;stroke-linecap:butt;stroke-linejoin:miter;stroke-opacity:1"
       d="M 42.658303,13.544809 C 42.795098,11.90747 42.34149,10.243159 41.482579,8.8424935 40.623668,7.4418284 39.372998,6.3000159 37.952117,5.4749785 34.679253,3.5745841 30.712397,3.3882227 26.928108,3.4361203 23.887569,3.4746042 20.827044,3.6357711 17.871611,4.3511536 15.603964,4.9000529 13.401362,5.7812617 11.475751,7.0986599 9.5501399,8.416058 7.9077614,10.182288 6.8876244,12.280582 c -1.020137,2.098293 -1.3932667,4.534698 -0.8807275,6.810839 0.5125392,2.276142 1.9437838,4.363361 3.9690398,5.521745 2.1529123,1.231399 4.7808633,1.35463 7.2341963,0.990578 2.453333,-0.364052 4.815814,-1.176224 7.237181,-1.713217 3.685411,-0.817323 7.53262,-1.004138 11.061911,-2.34368 1.764646,-0.66977 3.440714,-1.636478 4.752239,-2.993854 1.311525,-1.357375 2.239693,-3.127261 2.396839,-5.008184 z"
       id="path1269"
       inkscape:path-effect="#path-effect1273"
       inkscape:original-d="M 42.658303,13.544809 C 47.157514,8.7921207 39.520759,8.1649237 37.952117,5.4749785 36.383471,2.785039 30.6027,4.1157477 26.928108,3.4361203 23.253518,2.7564989 20.890356,4.0461405 17.871611,4.3511536 14.852868,4.6561547 9.3067264,21.541421 9.9759367,24.613166 10.894735,28.237841 19.663755,24.203508 24.447314,23.890527 49.372455,22.259718 35.826568,20.755482 42.658303,13.544809 Z"
       sodipodi:nodetypes="cssscsc" />
    <path
       style="fill:#0e58f8;fill-opacity:1;stroke:none;stroke-width:0.0558108px;stroke-linecap:butt;stroke-linejoin:miter;stroke-opacity:1"
       d="m 271.66654,110.54758 c -1.03799,1.09287 -1.91894,2.34492 -2.51629,3.72874 -0.59734,1.38382 -0.90567,2.90227 -0.80757,4.40632 0.11621,1.78169 0.79407,3.48853 1.69306,5.03117 0.89899,1.54264 2.01822,2.94311 3.10261,4.36157 1.74293,2.27989 3.46178,4.67459 5.87202,6.2323 2.17463,1.40544 4.84053,2.03365 7.41388,1.74707 2.57335,-0.28659 5.03572,-1.48592 6.84787,-3.33535 3.08591,-2.78272 4.97464,-6.85101 5.10873,-11.00413 0.13409,-4.15312 -1.48827,-8.33477 -4.38826,-11.31076 -2.89998,-2.97598 -7.03827,-4.70596 -11.19347,-4.67933 -4.15519,0.0266 -8.27098,1.8095 -11.13258,4.8224 z"
       id="path825"
       inkscape:path-effect="#path-effect829"
       inkscape:original-d="m 271.66654,110.54758 c -6.12379,-0.63335 -2.21586,5.42344 -3.32386,8.13506 -1.108,2.71163 3.19716,6.26189 4.79567,9.39274 1.5985,3.13086 3.91473,4.15493 5.87202,6.2323 1.95729,2.07737 12.35354,0.67109 14.26175,-1.58828 3.61504,-18.31623 10.09758,-18.87974 -21.60558,-22.17182 z"
       sodipodi:nodetypes="cssscc" />
  </g>
</svg>
