<?xml version="1.0" encoding="UTF-8" standalone="no"?>
<!-- Created with Inkscape (http://www.inkscape.org/) -->

<svg
   width="1200"
   height="560"
   viewBox="0 0 317.49999 148.16667"
   version="1.1"
   id="svg5"
   inkscape:version="1.1.2 (b8e25be833, 2022-02-05)"
   sodipodi:docname="background-bubbles5.svg"
   xmlns:inkscape="http://www.inkscape.org/namespaces/inkscape"
   xmlns:sodipodi="http://sodipodi.sourceforge.net/DTD/sodipodi-0.dtd"
   xmlns="http://www.w3.org/2000/svg"
   xmlns:svg="http://www.w3.org/2000/svg">
  <sodipodi:namedview
     id="namedview7"
     pagecolor="#ffffff"
     bordercolor="#666666"
     borderopacity="1.0"
     inkscape:pageshadow="2"
     inkscape:pageopacity="0.0"
     inkscape:pagecheckerboard="0"
     inkscape:document-units="mm"
     showgrid="false"
     units="px"
     inkscape:zoom="0.46235269"
     inkscape:cx="600.19117"
     inkscape:cy="392.55747"
     inkscape:window-width="1366"
     inkscape:window-height="690"
     inkscape:window-x="-8"
     inkscape:window-y="-8"
     inkscape:window-maximized="1"
     inkscape:current-layer="layer1"
     height="560px" />
  <defs
     id="defs2">
    <inkscape:path-effect
       effect="spiro"
       id="path-effect15"
       is_visible="true"
       lpeversion="1" />
    <inkscape:path-effect
       effect="spiro"
       id="path-effect938"
       is_visible="true"
       lpeversion="1" />
    <inkscape:path-effect
       effect="spiro"
       id="path-effect829"
       is_visible="true"
       lpeversion="1" />
    <inkscape:path-effect
       effect="spiro"
       id="path-effect1273"
       is_visible="true"
       lpeversion="1" />
    <inkscape:path-effect
       effect="spiro"
       id="path-effect859"
       is_visible="true"
       lpeversion="1" />
  </defs>
  <g
     inkscape:label="Layer 1"
     inkscape:groupmode="layer"
     id="layer1">
    <path
       style="fill:#0e58f8;fill-opacity:1;stroke:none;stroke-width:0.0593289px;stroke-linecap:butt;stroke-linejoin:miter;stroke-opacity:1"
       d="m 279.75297,5.7996595 c -1.19484,1.1278073 -1.96808,2.6698135 -2.26355,4.2860695 -0.29548,1.616256 -0.12646,3.301291 0.38075,4.864085 1.16831,3.599747 3.99753,6.386535 6.84719,8.877029 2.2896,2.001023 4.67598,3.924041 7.35407,5.364249 2.05485,1.105044 4.28309,1.919237 6.59627,2.223752 2.31318,0.304515 4.71508,0.08577 6.87534,-0.795588 2.16026,-0.881359 4.06447,-2.446371 5.20226,-4.483271 1.13779,-2.0369 1.46541,-4.546404 0.73072,-6.760844 -0.781,-2.354021 -2.65545,-4.200033 -4.72516,-5.566661 -2.06971,-1.366629 -4.37092,-2.338951 -6.53227,-3.555474 -3.28966,-1.8515924 -6.27891,-4.2806515 -9.80093,-5.639196 -1.76101,-0.6792722 -3.65428,-1.0783236 -5.53691,-0.9431462 -1.88263,0.1351774 -3.75519,0.8334054 -5.12778,2.1289957 z"
       id="path1269"
       sodipodi:nodetypes="cssscsc"
       inkscape:original-d="m 279.75297,5.7996595 c -6.52261,0.535339 -1.25514,6.1001585 -1.8828,9.1501545 -0.62766,3.049996 4.56486,5.918063 6.84719,8.877029 2.28234,2.958957 4.90278,3.576226 7.35407,5.364249 2.45128,1.788022 17.85236,-7.082076 19.40459,-9.815951 1.73549,-3.312176 -7.48678,-6.161971 -11.25743,-9.122135 C 280.5713,-5.1712055 289.65311,4.9912125 279.75297,5.7996595 Z"
       inkscape:path-effect="#path-effect1273" />
    <path
       style="fill:#0e58f8;fill-opacity:1;stroke:none;stroke-width:0.0593289px;stroke-linecap:butt;stroke-linejoin:miter;stroke-opacity:1"
       d="M 27.826031,6.112056 C 26.389911,5.4492491 24.798999,5.1664005 23.217746,5.1290472 21.636494,5.0916938 20.058757,5.293247 18.500301,5.563376 16.305602,5.9437857 14.11264,6.4688837 12.11702,7.4582857 10.121401,8.4476878 8.3212768,9.9367744 7.2655653,11.898123 6.4772757,13.362643 6.130905,15.034724 6.0629428,16.69653 c -0.067962,1.661807 0.1325287,3.322746 0.3840985,4.966806 0.7765045,5.074614 2.1509109,10.28379 5.5333767,14.145601 1.691233,1.930906 3.873421,3.468778 6.335222,4.195553 2.4618,0.726775 5.205468,0.601642 7.500403,-0.548114 2.234052,-1.119254 3.928118,-3.12835 5.070505,-5.350662 1.142386,-2.222313 1.780837,-4.665093 2.339655,-7.100548 0.873465,-3.806759 1.575822,-7.747382 0.950139,-11.602622 -0.312841,-1.92762 -0.963819,-3.813853 -2.02709,-5.4518531 -1.06327,-1.638 -2.550112,-3.020299 -4.323221,-3.8386349 z"
       id="path11"
       sodipodi:nodetypes="cssscsc"
       inkscape:original-d="m 27.826031,6.112056 c -1.46688,-6.37802997 -6.2172,-0.36572 -9.32573,-0.54868 -3.10853,-0.18296 -8.6343657,3.6509873 -11.2347357,6.334747 -2.60036,2.68377 0.598776,7.082473 -0.818524,9.765213 -1.4173,2.68274 16.4404817,16.64969 19.3690017,17.79304 3.52715,1.24163 5.02243,-8.29439 7.41016,-12.45121 12.4415,-21.65944 -3.177772,-11.21182 -5.400172,-20.89311 z"
       inkscape:path-effect="#path-effect15" />
  </g>
</svg>
